<svg width="26.057373" height="24.000000" viewBox="0 0 26.0574 24" fill="none" xmlns="http://www.w3.org/2000/svg" xmlns:xlink="http://www.w3.org/1999/xlink">
	<desc>
			Created with Pixso.
	</desc>
	<defs/>
	<path id="rect (Граница)" d="M0 1.38L0 22.61C0 23.07 0.11 23.42 0.34 23.65C0.58 23.88 0.92 24 1.39 24L16.71 24C17.17 24 17.52 23.88 17.75 23.65C17.99 23.42 18.1 23.07 18.1 22.61L18.1 1.38C18.1 0.92 17.99 0.57 17.75 0.34C17.52 0.11 17.17 0 16.71 0L1.39 0C0.92 0 0.58 0.11 0.34 0.34C0.11 0.57 0 0.92 0 1.38ZM2.78 21.23L2.78 2.76L15.32 2.76L15.32 21.23L2.78 21.23Z" fill="#FFFFFF" fill-opacity="1.000000" fill-rule="evenodd"/>
	<path id="path (Граница)" d="M17.3 1.97C16.6 1.64 15.78 1.93 15.45 2.64C15.12 3.34 15.41 4.15 16.12 4.48L22.65 7.53L15.5 20.08C15.11 20.76 15.34 21.59 16.02 21.97C16.7 22.35 17.54 22.12 17.92 21.45L25.81 7.6C25.83 7.57 25.85 7.54 25.86 7.51C26.26 6.67 26.04 6.06 25.2 5.67L17.3 1.97Z" fill="#FFFFFF" fill-opacity="1.000000" fill-rule="evenodd"/>
</svg>
